<?xml version="1.0" standalone="no"?><!DOCTYPE svg PUBLIC "-//W3C//DTD SVG 1.1//EN" "http://www.w3.org/Graphics/SVG/1.1/DTD/svg11.dtd"><svg t="1543204086294" class="icon" style="" viewBox="0 0 1024 1024" version="1.1" xmlns="http://www.w3.org/2000/svg" p-id="7324" xmlns:xlink="http://www.w3.org/1999/xlink" width="16" height="16"><defs><style type="text/css"></style></defs><path d="M104.601497 104.601497v740.724551c0 40.867561 33.204894 74.072455 74.072455 74.072455H215.649365V104.601497h-111.047868z m449.543176 0v252.868036l89.032902-63.004157 79.545789 63.004157V104.601497H554.144673z m224.771588 0v337.157382L643.177575 342.995605l-145.225799 98.763274V104.601497H273.180188v814.675377h572.14586c40.867561 0 74.072455-33.204894 74.072455-74.072455V104.601497H778.916261zM799.471671 854.083383H557.550303c-2.432593 0-4.743556-0.243259-6.93289-0.729778-1.824445 0.486519-3.770519 0.729778-5.838223 0.729778H372.42998c-19.095855 0-31.01556-20.67704-21.528448-37.218672L437.015322 667.503504c9.608742-16.541632 33.448153-16.541632 43.056896 0l62.396009 108.007127 105.817793-183.295879c13.379261-23.231263 46.949044-23.231263 60.449934 0l120.89987 209.446253c13.500891 23.352892-3.284 52.422378-30.164153 52.422378z" fill="#3aaa92" p-id="7325"></path></svg>