<?xml version="1.0" standalone="no"?><!DOCTYPE svg PUBLIC "-//W3C//DTD SVG 1.1//EN" "http://www.w3.org/Graphics/SVG/1.1/DTD/svg11.dtd"><svg t="1521107677245" class="icon" style="" viewBox="0 0 1024 1024" version="1.1" xmlns="http://www.w3.org/2000/svg" p-id="4200" xmlns:xlink="http://www.w3.org/1999/xlink" width="16" height="16"><defs><style type="text/css"></style></defs><path d="M512.642 1000.271c-269.858 0-489.39-219.532-489.39-489.376s219.532-489.39 489.39-489.39c269.844 0 489.376 219.546 489.376 489.39s-219.546 489.376-489.376 489.376zM512.642 62.464c-247.262 0-448.43 201.168-448.43 448.43s201.154 448.416 448.43 448.416c247.248 0 448.416-201.154 448.416-448.416s-201.168-448.43-448.416-448.43z" p-id="4201" fill="#f5610c"></path><path d="M442.177 485.908l-18.009-13.926c48.606-52.975 91.75-79.462 129.42-79.462 9.844 0 16.657 1.502 20.48 4.506 3.809 3.018 5.734 7.782 5.734 14.336 0 9.844-8.738 42.598-26.214 98.304-28.399 96.666-42.598 153.75-42.598 171.213 0 8.752 2.731 13.107 8.206 13.107 10.923 0 33.3-16.384 67.174-49.152l14.746 15.565c-34.966 33.314-61.167 55.023-78.643 65.14-17.49 10.090-32.236 15.141-44.237 15.141-9.83 0-17.081-3.564-21.709-10.65-4.656-7.086-6.977-14.732-6.977-22.938 0-30.023 20.193-111.411 60.621-244.122 2.171-6.554 3.277-11.728 3.277-15.565 0-6.007-3.277-9.011-9.844-9.011-9.284 0.014-29.764 15.852-61.426 47.514z" p-id="4202" fill="#f5610c"></path><path d="M524.615 322.847c0-12.001 4.096-21.968 12.274-29.887 8.206-7.919 17.749-11.878 28.686-11.878 7.1 0 13.366 3.14 18.842 9.407 5.447 6.294 8.192 13.517 8.192 21.709 0 10.937-4.096 20.767-12.274 29.491-8.206 8.752-17.49 13.107-27.853 13.107-8.752 0-15.579-2.99-20.48-8.997-4.929-6.007-7.387-13.653-7.387-22.951z" p-id="4203" fill="#f5610c"></path></svg>